<svg width="276" height="31" viewBox="0 0 276 31" fill="none" xmlns="http://www.w3.org/2000/svg">
<path d="M20.6713 0.815998H27.0713V30H20.5433V9.776L14.7833 30H10.0793L3.87126 10.864V19.76C3.87126 22.1067 3.93526 23.984 4.06326 25.392C4.21259 26.7787 4.51126 27.9947 4.95926 29.04V30.032L0.159256 30V29.04C0.628589 27.9307 0.959256 26.6507 1.15126 25.2C1.34326 23.728 1.43926 21.9147 1.43926 19.76V3.376L0.607256 0.815998H6.97526L14.2713 23.216L20.6713 0.815998ZM52.2658 30H48.2018V28.72C48.2018 27.8027 48.1164 26.928 47.9458 26.096C47.7964 25.2427 47.5724 24.272 47.2738 23.184L46.0578 18.864H39.1458L35.9138 30H29.6098L38.2498 0.815998H43.6258L52.2658 30ZM42.6338 6.896L39.8498 16.432H45.3538L42.6338 6.896ZM71.124 24.944L70.26 30H53.876V0.815998H60.436V27.568C62.9107 27.568 64.82 27.408 66.164 27.088C67.5293 26.7467 68.5853 26.032 69.332 24.944H71.124ZM79.6785 30H73.1185V0.815998H79.6785V30ZM82.3935 30V0.815998H88.9535V15.184L93.3055 9.136C94.2655 7.81333 95.0015 6.65067 95.5135 5.648C96.0255 4.624 96.3775 3.78133 96.5695 3.12C96.7615 2.45867 96.9322 1.69066 97.0815 0.815998H101.914L94.7135 10.704C95.1188 12.048 95.7162 13.4667 96.5055 14.96C97.3162 16.4533 98.4255 18.3947 99.8335 20.784C101.135 22.96 102.159 24.7733 102.906 26.224C103.674 27.6533 104.186 28.912 104.442 30H97.8815C97.6468 29.1893 97.2735 28.2613 96.7615 27.216C96.2708 26.1493 95.5988 24.784 94.7455 23.12C93.7855 21.2427 93.0388 19.7387 92.5055 18.608C91.9722 17.456 91.5455 16.3893 91.2255 15.408L88.9535 18.544V30H82.3935ZM127.738 30H123.674V28.72C123.674 27.8027 123.589 26.928 123.418 26.096C123.269 25.2427 123.045 24.272 122.746 23.184L121.53 18.864H114.618L111.386 30H105.082L113.722 0.815998H119.098L127.738 30ZM118.106 6.896L115.322 16.432H120.826L118.106 6.896ZM153.043 24.944L152.179 30H135.795V0.815998H142.355V27.568C144.829 27.568 146.739 27.408 148.083 27.088C149.448 26.7467 150.504 26.032 151.251 24.944H153.043ZM154.397 30V0.815998H160.957V15.184L165.309 9.136C166.269 7.81333 167.005 6.65067 167.517 5.648C168.029 4.624 168.381 3.78133 168.573 3.12C168.765 2.45867 168.936 1.69066 169.085 0.815998H173.917L166.717 10.704C167.123 12.048 167.72 13.4667 168.509 14.96C169.32 16.4533 170.429 18.3947 171.837 20.784C173.139 22.96 174.163 24.7733 174.909 26.224C175.677 27.6533 176.189 28.912 176.445 30H169.885C169.651 29.1893 169.277 28.2613 168.765 27.216C168.275 26.1493 167.603 24.784 166.749 23.12C165.789 21.2427 165.043 19.7387 164.509 18.608C163.976 17.456 163.549 16.3893 163.229 15.408L160.957 18.544V30H154.397ZM190.965 14.864V0.815998H197.525V30H190.965V17.296H184.341V30H177.781V0.815998H184.341V14.864H190.965ZM221.938 30H217.874V28.72C217.874 27.8027 217.789 26.928 217.618 26.096C217.469 25.2427 217.245 24.272 216.946 23.184L215.73 18.864H208.818L205.586 30H199.282L207.922 0.815998H213.298L221.938 30ZM212.306 6.896L209.522 16.432H215.026L212.306 6.896ZM223.549 30V0.815998H235.837C237.373 0.815998 238.642 1.14666 239.645 1.808C240.647 2.46933 241.383 3.344 241.853 4.432C242.322 5.49867 242.557 6.66133 242.557 7.92C242.557 9.49866 242.215 10.9707 241.533 12.336C240.85 13.68 239.986 14.5227 238.941 14.864V15.088C240.626 15.3013 241.895 16.0373 242.749 17.296C243.623 18.5333 244.061 20.1227 244.061 22.064C244.061 23.344 243.783 24.592 243.229 25.808C242.674 27.024 241.831 28.0267 240.701 28.816C239.57 29.6053 238.194 30 236.573 30H223.549ZM232.829 13.904C234.194 13.904 235.143 13.4453 235.677 12.528C236.21 11.5893 236.477 10.224 236.477 8.432C236.477 6.59733 236.167 5.27467 235.549 4.464C234.93 3.65333 233.842 3.248 232.285 3.248H230.109V13.904H232.829ZM232.413 27.568C234.205 27.568 235.495 27.12 236.285 26.224C237.095 25.3067 237.501 23.92 237.501 22.064C237.501 20.144 237.127 18.7147 236.381 17.776C235.634 16.816 234.45 16.336 232.829 16.336H230.109V27.568H232.413ZM252.476 30H245.916V0.815998H252.476V30ZM269.527 16.528C270.594 16.8267 271.415 17.3387 271.991 18.064C272.567 18.768 272.972 19.568 273.207 20.464C273.463 21.3387 273.708 22.5013 273.943 23.952C274.178 25.424 274.412 26.6187 274.647 27.536C274.903 28.4533 275.298 29.2747 275.831 30H269.399C268.823 29.2533 268.418 28.4107 268.183 27.472C267.97 26.5333 267.788 25.328 267.639 23.856C267.49 22.4267 267.308 21.3067 267.095 20.496C266.903 19.6853 266.487 19.0133 265.847 18.48C265.228 17.9467 264.279 17.68 262.999 17.68H261.751V30H255.191V0.815998H267.607C269.1 0.815998 270.38 1.2 271.447 1.968C272.514 2.71467 273.314 3.71733 273.847 4.976C274.402 6.21333 274.679 7.55733 274.679 9.008C274.679 10.8853 274.231 12.464 273.335 13.744C272.439 15.0027 271.17 15.9307 269.527 16.528ZM261.751 15.248H263.063C264.77 15.248 266.039 14.6507 266.871 13.456C267.703 12.2613 268.119 10.7787 268.119 9.008C268.119 7.344 267.703 5.968 266.871 4.88C266.06 3.792 264.791 3.248 263.063 3.248H261.751V15.248Z" fill="#03045E"/>
</svg>