<svg width="107" height="54" viewBox="0 0 107 54" fill="none" xmlns="http://www.w3.org/2000/svg">
<path d="M21.4047 0.111999H26.2047V22H21.3087V6.832L16.9887 22H13.4607L8.80469 7.648V14.32C8.80469 16.08 8.85269 17.488 8.94869 18.544C9.06069 19.584 9.28469 20.496 9.62069 21.28V22.024L6.02069 22V21.28C6.37269 20.448 6.62069 19.488 6.76469 18.4C6.90869 17.296 6.98069 15.936 6.98069 14.32V2.032L6.35669 0.111999H11.1327L16.6047 16.912L21.4047 0.111999ZM45.1006 22H42.0526V21.04C42.0526 20.352 41.9886 19.696 41.8606 19.072C41.7486 18.432 41.5806 17.704 41.3566 16.888L40.4446 13.648H35.2606L32.8366 22H28.1086L34.5886 0.111999H38.6206L45.1006 22ZM37.8766 4.672L35.7886 11.824H39.9166L37.8766 4.672ZM59.2443 18.208L58.5963 22H46.3083V0.111999H51.2283V20.176C53.0843 20.176 54.5163 20.056 55.5243 19.816C56.5483 19.56 57.3403 19.024 57.9003 18.208H59.2443ZM65.6601 22H60.7401V0.111999H65.6601V22ZM67.6964 22V0.111999H72.6164V10.888L75.8804 6.352C76.6004 5.36 77.1524 4.488 77.5364 3.736C77.9204 2.968 78.1844 2.336 78.3284 1.84C78.4724 1.344 78.6004 0.767999 78.7124 0.111999H82.3364L76.9364 7.528C77.2404 8.536 77.6884 9.6 78.2804 10.72C78.8884 11.84 79.7204 13.296 80.7764 15.088C81.7524 16.72 82.5204 18.08 83.0804 19.168C83.6564 20.24 84.0404 21.184 84.2324 22H79.3124C79.1364 21.392 78.8564 20.696 78.4724 19.912C78.1044 19.112 77.6004 18.088 76.9604 16.84C76.2404 15.432 75.6804 14.304 75.2804 13.456C74.8804 12.592 74.5604 11.792 74.3204 11.056L72.6164 13.408V22H67.6964ZM101.705 22H98.6569V21.04C98.6569 20.352 98.5929 19.696 98.4649 19.072C98.3529 18.432 98.1849 17.704 97.9609 16.888L97.0489 13.648H91.8649L89.4409 22H84.7129L91.1929 0.111999H95.2249L101.705 22ZM94.4809 4.672L92.3929 11.824H96.5209L94.4809 4.672ZM13.9818 42.208L13.3338 46H1.04575V24.112H5.96575V44.176C7.82175 44.176 9.25375 44.056 10.2618 43.816C11.2858 43.56 12.0778 43.024 12.6378 42.208H13.9818ZM14.9976 46V24.112H19.9176V34.888L23.1816 30.352C23.9016 29.36 24.4536 28.488 24.8376 27.736C25.2216 26.968 25.4856 26.336 25.6296 25.84C25.7736 25.344 25.9016 24.768 26.0136 24.112H29.6376L24.2376 31.528C24.5416 32.536 24.9896 33.6 25.5816 34.72C26.1896 35.84 27.0216 37.296 28.0776 39.088C29.0536 40.72 29.8216 42.08 30.3816 43.168C30.9576 44.24 31.3416 45.184 31.5336 46H26.6136C26.4376 45.392 26.1576 44.696 25.7736 43.912C25.4056 43.112 24.9016 42.088 24.2616 40.84C23.5416 39.432 22.9816 38.304 22.5816 37.456C22.1816 36.592 21.8616 35.792 21.6216 35.056L19.9176 37.408V46H14.9976ZM42.4234 34.648V24.112H47.3434V46H42.4234V36.472H37.4554V46H32.5354V24.112H37.4554V34.648H42.4234ZM65.6534 46H62.6054V45.04C62.6054 44.352 62.5414 43.696 62.4134 43.072C62.3014 42.432 62.1334 41.704 61.9094 40.888L60.9974 37.648H55.8134L53.3894 46H48.6614L55.1414 24.112H59.1734L65.6534 46ZM58.4294 28.672L56.3414 35.824H60.4694L58.4294 28.672ZM66.8611 46V24.112H76.0771C77.2291 24.112 78.1811 24.36 78.9331 24.856C79.6851 25.352 80.2371 26.008 80.5891 26.824C80.9411 27.624 81.1171 28.496 81.1171 29.44C81.1171 30.624 80.8611 31.728 80.3491 32.752C79.8371 33.76 79.1891 34.392 78.4051 34.648V34.816C79.6691 34.976 80.6211 35.528 81.2611 36.472C81.9171 37.4 82.2451 38.592 82.2451 40.048C82.2451 41.008 82.0371 41.944 81.6211 42.856C81.2051 43.768 80.5731 44.52 79.7251 45.112C78.8771 45.704 77.8451 46 76.6291 46H66.8611ZM73.8211 33.928C74.8451 33.928 75.5571 33.584 75.9571 32.896C76.3571 32.192 76.5571 31.168 76.5571 29.824C76.5571 28.448 76.3251 27.456 75.8611 26.848C75.3971 26.24 74.5811 25.936 73.4131 25.936H71.7811V33.928H73.8211ZM73.5091 44.176C74.8531 44.176 75.8211 43.84 76.4131 43.168C77.0211 42.48 77.3251 41.44 77.3251 40.048C77.3251 38.608 77.0451 37.536 76.4851 36.832C75.9251 36.112 75.0371 35.752 73.8211 35.752H71.7811V44.176H73.5091ZM88.5567 46H83.6367V24.112H88.5567V46ZM101.345 35.896C102.145 36.12 102.761 36.504 103.193 37.048C103.625 37.576 103.929 38.176 104.105 38.848C104.297 39.504 104.481 40.376 104.657 41.464C104.833 42.568 105.009 43.464 105.185 44.152C105.377 44.84 105.673 45.456 106.073 46H101.249C100.817 45.44 100.513 44.808 100.337 44.104C100.177 43.4 100.041 42.496 99.9289 41.392C99.8169 40.32 99.6809 39.48 99.5209 38.872C99.3769 38.264 99.0649 37.76 98.5849 37.36C98.1209 36.96 97.4089 36.76 96.4489 36.76H95.5129V46H90.5929V24.112H99.9049C101.025 24.112 101.985 24.4 102.785 24.976C103.585 25.536 104.185 26.288 104.585 27.232C105.001 28.16 105.209 29.168 105.209 30.256C105.209 31.664 104.873 32.848 104.201 33.808C103.529 34.752 102.577 35.448 101.345 35.896ZM95.5129 34.936H96.4969C97.7769 34.936 98.7289 34.488 99.3529 33.592C99.9769 32.696 100.289 31.584 100.289 30.256C100.289 29.008 99.9769 27.976 99.3529 27.16C98.7449 26.344 97.7929 25.936 96.4969 25.936H95.5129V34.936Z" fill="#03045E"/>
<path d="M20.456 53V48.812H22.076C22.28 48.812 22.462 48.844 22.622 48.908C22.782 48.968 22.916 49.056 23.024 49.172C23.136 49.288 23.22 49.428 23.276 49.592C23.332 49.756 23.36 49.94 23.36 50.144C23.36 50.348 23.332 50.532 23.276 50.696C23.22 50.86 23.136 51 23.024 51.116C22.916 51.232 22.782 51.322 22.622 51.386C22.462 51.446 22.28 51.476 22.076 51.476H21.362V53H20.456ZM21.362 50.75H21.848C22.06 50.75 22.206 50.71 22.286 50.63C22.37 50.55 22.412 50.418 22.412 50.234V50.054C22.412 49.87 22.37 49.738 22.286 49.658C22.206 49.578 22.06 49.538 21.848 49.538H21.362V50.75ZM28.1517 53.072C27.7997 53.072 27.4937 53.014 27.2337 52.898C26.9737 52.782 26.7637 52.624 26.6037 52.424L27.1257 51.848C27.2777 52.016 27.4437 52.14 27.6237 52.22C27.8077 52.3 27.9937 52.34 28.1817 52.34C28.3977 52.34 28.5617 52.292 28.6737 52.196C28.7857 52.1 28.8417 51.962 28.8417 51.782C28.8417 51.634 28.7977 51.522 28.7097 51.446C28.6257 51.37 28.4817 51.316 28.2777 51.284L27.8397 51.212C27.4637 51.148 27.1917 51.01 27.0237 50.798C26.8557 50.582 26.7717 50.32 26.7717 50.012C26.7717 49.608 26.9037 49.296 27.1677 49.076C27.4317 48.852 27.8017 48.74 28.2777 48.74C28.6017 48.74 28.8837 48.79 29.1237 48.89C29.3637 48.99 29.5577 49.126 29.7057 49.298L29.1957 49.868C29.0837 49.744 28.9517 49.648 28.7997 49.58C28.6477 49.508 28.4757 49.472 28.2837 49.472C27.8797 49.472 27.6777 49.638 27.6777 49.97C27.6777 50.114 27.7217 50.222 27.8097 50.294C27.9017 50.366 28.0497 50.42 28.2537 50.456L28.6917 50.534C29.0317 50.594 29.2937 50.722 29.4777 50.918C29.6617 51.114 29.7537 51.378 29.7537 51.71C29.7537 51.906 29.7197 52.088 29.6517 52.256C29.5837 52.42 29.4817 52.564 29.3457 52.688C29.2097 52.808 29.0417 52.902 28.8417 52.97C28.6457 53.038 28.4157 53.072 28.1517 53.072ZM34.1853 53V51.518L32.8593 48.812H33.8613L34.3053 49.784L34.6293 50.606H34.6773L35.0013 49.784L35.4453 48.812H36.4113L35.0853 51.518V53H34.1853ZM41.149 53.072C40.589 53.072 40.173 52.884 39.901 52.508C39.633 52.128 39.499 51.594 39.499 50.906C39.499 50.218 39.633 49.686 39.901 49.31C40.173 48.93 40.589 48.74 41.149 48.74C41.365 48.74 41.555 48.77 41.719 48.83C41.887 48.886 42.031 48.966 42.151 49.07C42.271 49.174 42.369 49.3 42.445 49.448C42.525 49.596 42.587 49.762 42.631 49.946L41.791 50.15C41.767 50.05 41.739 49.958 41.707 49.874C41.675 49.79 41.633 49.718 41.581 49.658C41.533 49.598 41.471 49.552 41.395 49.52C41.323 49.484 41.235 49.466 41.131 49.466C40.887 49.466 40.713 49.562 40.609 49.754C40.509 49.942 40.459 50.204 40.459 50.54V51.272C40.459 51.608 40.509 51.872 40.609 52.064C40.713 52.252 40.887 52.346 41.131 52.346C41.339 52.346 41.489 52.282 41.581 52.154C41.677 52.026 41.747 51.862 41.791 51.662L42.631 51.866C42.587 52.05 42.525 52.216 42.445 52.364C42.369 52.512 42.271 52.64 42.151 52.748C42.031 52.852 41.887 52.932 41.719 52.988C41.555 53.044 41.365 53.072 41.149 53.072ZM47.9986 51.248H46.9426V53H46.0366V48.812H46.9426V50.51H47.9986V48.812H48.9046V53H47.9986V51.248ZM53.8883 53.072C53.3283 53.072 52.9143 52.882 52.6463 52.502C52.3823 52.122 52.2503 51.59 52.2503 50.906C52.2503 50.222 52.3823 49.69 52.6463 49.31C52.9143 48.93 53.3283 48.74 53.8883 48.74C54.4483 48.74 54.8603 48.93 55.1243 49.31C55.3923 49.69 55.5263 50.222 55.5263 50.906C55.5263 51.59 55.3923 52.122 55.1243 52.502C54.8603 52.882 54.4483 53.072 53.8883 53.072ZM53.8883 52.346C54.1443 52.346 54.3203 52.252 54.4163 52.064C54.5163 51.872 54.5663 51.606 54.5663 51.266V50.54C54.5663 50.204 54.5163 49.942 54.4163 49.754C54.3203 49.562 54.1443 49.466 53.8883 49.466C53.6323 49.466 53.4543 49.562 53.3543 49.754C53.2583 49.942 53.2103 50.204 53.2103 50.54V51.272C53.2103 51.608 53.2583 51.872 53.3543 52.064C53.4543 52.252 53.6323 52.346 53.8883 52.346ZM59.0579 53V48.812H59.9639V52.262H61.7639V53H59.0579ZM66.7236 53.072C66.1636 53.072 65.7496 52.882 65.4816 52.502C65.2176 52.122 65.0856 51.59 65.0856 50.906C65.0856 50.222 65.2176 49.69 65.4816 49.31C65.7496 48.93 66.1636 48.74 66.7236 48.74C67.2836 48.74 67.6956 48.93 67.9596 49.31C68.2276 49.69 68.3616 50.222 68.3616 50.906C68.3616 51.59 68.2276 52.122 67.9596 52.502C67.6956 52.882 67.2836 53.072 66.7236 53.072ZM66.7236 52.346C66.9796 52.346 67.1556 52.252 67.2516 52.064C67.3516 51.872 67.4016 51.606 67.4016 51.266V50.54C67.4016 50.204 67.3516 49.942 67.2516 49.754C67.1556 49.562 66.9796 49.466 66.7236 49.466C66.4676 49.466 66.2896 49.562 66.1896 49.754C66.0936 49.942 66.0456 50.204 66.0456 50.54V51.272C66.0456 51.608 66.0936 51.872 66.1896 52.064C66.2896 52.252 66.4676 52.346 66.7236 52.346ZM73.8072 52.406H73.7532C73.7172 52.494 73.6732 52.578 73.6212 52.658C73.5692 52.738 73.5052 52.81 73.4292 52.874C73.3532 52.934 73.2632 52.982 73.1592 53.018C73.0592 53.054 72.9452 53.072 72.8172 53.072C72.6132 53.072 72.4312 53.024 72.2712 52.928C72.1152 52.832 71.9832 52.692 71.8752 52.508C71.7672 52.324 71.6852 52.1 71.6292 51.836C71.5772 51.572 71.5512 51.274 71.5512 50.942C71.5512 50.23 71.6812 49.686 71.9412 49.31C72.2012 48.93 72.6032 48.74 73.1472 48.74C73.3632 48.74 73.5532 48.77 73.7172 48.83C73.8812 48.886 74.0212 48.968 74.1372 49.076C74.2572 49.18 74.3552 49.306 74.4312 49.454C74.5072 49.602 74.5672 49.766 74.6112 49.946L73.7712 50.15C73.7472 50.062 73.7192 49.978 73.6872 49.898C73.6592 49.814 73.6212 49.74 73.5732 49.676C73.5252 49.612 73.4652 49.562 73.3932 49.526C73.3212 49.486 73.2332 49.466 73.1292 49.466C72.9012 49.466 72.7392 49.56 72.6432 49.748C72.5512 49.936 72.5052 50.2 72.5052 50.54V51.224C72.5052 51.564 72.5552 51.836 72.6552 52.04C72.7592 52.244 72.9412 52.346 73.2012 52.346C73.4052 52.346 73.5572 52.286 73.6572 52.166C73.7572 52.046 73.8072 51.892 73.8072 51.704V51.398H73.0932V50.762H74.6112V53H73.8072V52.406ZM78.9889 48.812V51.464C78.9889 51.596 78.9929 51.718 79.0009 51.83C79.0129 51.938 79.0369 52.03 79.0729 52.106C79.1129 52.182 79.1709 52.242 79.2469 52.286C79.3229 52.326 79.4269 52.346 79.5589 52.346C79.6909 52.346 79.7949 52.326 79.8709 52.286C79.9469 52.242 80.0029 52.182 80.0389 52.106C80.0789 52.03 80.1029 51.938 80.1109 51.83C80.1229 51.718 80.1289 51.596 80.1289 51.464V48.812H81.0289V51.344C81.0289 51.632 81.0089 51.884 80.9689 52.1C80.9329 52.316 80.8609 52.496 80.7529 52.64C80.6449 52.784 80.4949 52.892 80.3029 52.964C80.1109 53.036 79.8629 53.072 79.5589 53.072C79.2549 53.072 79.0069 53.036 78.8149 52.964C78.6229 52.892 78.4729 52.784 78.3649 52.64C78.2569 52.496 78.1829 52.316 78.1429 52.1C78.1069 51.884 78.0889 51.632 78.0889 51.344V48.812H78.9889ZM84.6566 53V48.812H87.3326V49.55H85.5566V50.51H87.2726V51.248H85.5566V52.262H87.3326V53H84.6566Z" fill="#03045E"/>
</svg>